<svg width="21" height="17" viewBox="0 0 21 17" fill="none" xmlns="http://www.w3.org/2000/svg">
<path d="M15.7572 0C13.895 0 11.8895 0.408191 10.5048 1.53072C9.12005 0.408191 7.1146 0 5.25239 0C3.86767 0 2.397 0.224505 1.16508 0.806177C0.46794 1.14293 0 1.86747 0 2.69406V14.205C0 15.5317 1.16508 16.5113 2.36835 16.1848C3.30423 15.9296 4.29741 15.8174 5.25239 15.8174C6.74216 15.8174 8.32742 16.0827 9.60709 16.7562C10.1801 17.0624 10.8295 17.0624 11.3929 16.7562C12.6726 16.0725 14.2578 15.8174 15.7476 15.8174C16.7026 15.8174 17.6958 15.9296 18.6317 16.1848C19.8349 16.5215 21 15.5419 21 14.205V2.69406C21 1.86747 20.5321 1.14293 19.8349 0.806177C18.6126 0.224505 17.1419 0 15.7572 0ZM19.0996 12.9907C19.0996 13.6336 18.5457 14.103 17.9536 13.9907C17.2374 13.8479 16.4925 13.7866 15.7572 13.7866C14.1337 13.7866 11.794 14.45 10.5048 15.3174V3.57167C11.794 2.70426 14.1337 2.04095 15.7572 2.04095C16.6357 2.04095 17.5048 2.1328 18.3356 2.32669C18.7749 2.42874 19.0996 2.84713 19.0996 3.32676V12.9907Z" fill="url(#paint0_linear_17_33)"/>
<path d="M12.3956 6.64343C12.09 6.64343 11.8131 6.43936 11.7176 6.11286C11.5934 5.71492 11.8035 5.27618 12.176 5.15374C13.6467 4.64357 15.5471 4.48031 17.2947 4.69458C17.6862 4.7456 17.9727 5.12313 17.925 5.54147C17.8772 5.9598 17.5239 6.26591 17.1323 6.21489C15.5853 6.02103 13.895 6.17408 12.6153 6.61282C12.5389 6.62303 12.4625 6.64343 12.3956 6.64343Z" fill="url(#paint1_linear_17_33)"/>
<path d="M12.3956 9.35803C12.09 9.35803 11.8131 9.15389 11.7176 8.82726C11.5934 8.42919 11.8035 7.99029 12.176 7.8678C13.6371 7.35745 15.5471 7.19414 17.2947 7.40848C17.6862 7.45952 17.9727 7.83718 17.925 8.25567C17.8772 8.67416 17.5239 8.98037 17.1323 8.92934C15.5853 8.7354 13.895 8.88851 12.6153 9.32741C12.5389 9.34783 12.4625 9.35803 12.3956 9.35803Z" fill="url(#paint2_linear_17_33)"/>
<path d="M12.3956 12.0724C12.09 12.0724 11.8131 11.8683 11.7176 11.5417C11.5934 11.1438 11.8035 10.705 12.176 10.5825C13.6371 10.0723 15.5471 9.90901 17.2947 10.1233C17.6862 10.1743 17.9727 10.5519 17.925 10.9703C17.8772 11.3887 17.5239 11.6846 17.1323 11.6438C15.5853 11.4499 13.895 11.603 12.6153 12.0418C12.5389 12.0622 12.4625 12.0724 12.3956 12.0724Z" fill="url(#paint3_linear_17_33)"/>
<defs>
<linearGradient id="paint0_linear_17_33" x1="10.5" y1="0" x2="10.5" y2="16.9858" gradientUnits="userSpaceOnUse">
<stop stop-color="#B6F809"/>
<stop offset="0.9999" stop-color="#8CF936"/>
<stop offset="1" stop-color="#67DD0A" stop-opacity="0"/>
</linearGradient>
<linearGradient id="paint1_linear_17_33" x1="14.806" y1="4.60266" x2="14.806" y2="6.64343" gradientUnits="userSpaceOnUse">
<stop stop-color="#B6F809"/>
<stop offset="0.9999" stop-color="#8CF936"/>
<stop offset="1" stop-color="#67DD0A" stop-opacity="0"/>
</linearGradient>
<linearGradient id="paint2_linear_17_33" x1="14.806" y1="7.31653" x2="14.806" y2="9.35803" gradientUnits="userSpaceOnUse">
<stop stop-color="#B6F809"/>
<stop offset="0.9999" stop-color="#8CF936"/>
<stop offset="1" stop-color="#67DD0A" stop-opacity="0"/>
</linearGradient>
<linearGradient id="paint3_linear_17_33" x1="14.806" y1="10.0314" x2="14.806" y2="12.0724" gradientUnits="userSpaceOnUse">
<stop stop-color="#B6F809"/>
<stop offset="0.9999" stop-color="#8CF936"/>
<stop offset="1" stop-color="#67DD0A" stop-opacity="0"/>
</linearGradient>
</defs>
</svg>
