<svg width="231" height="30" viewBox="0 0 231 30" fill="none" xmlns="http://www.w3.org/2000/svg">
<path d="M1.08797 29V28.172C1.78397 28.124 2.28797 27.944 2.59997 27.632C2.91197 27.32 3.06797 26.576 3.06797 25.4V8.66C3.06797 7.484 2.88797 6.74 2.52797 6.428C2.19197 6.092 1.53197 5.912 0.547974 5.888V5.06H3.06797C4.81997 5.06 6.46397 5.036 7.99997 4.988C9.53597 4.916 10.688 4.88 11.456 4.88C13.952 4.88 15.92 5.156 17.36 5.708C18.824 6.26 19.868 6.992 20.492 7.904C21.14 8.792 21.464 9.776 21.464 10.856C21.464 12.104 21.056 13.292 20.24 14.42C19.448 15.548 18.176 16.424 16.424 17.048C14.696 17.648 12.404 17.84 9.54797 17.624V16.364C10.844 16.412 11.912 16.184 12.752 15.68C13.592 15.152 14.204 14.456 14.588 13.592C14.996 12.728 15.2 11.804 15.2 10.82C15.2 9.5 14.828 8.444 14.084 7.652C13.34 6.836 12.308 6.428 10.988 6.428C10.196 6.428 9.63197 6.572 9.29597 6.86C8.98397 7.124 8.82797 7.724 8.82797 8.66V25.4C8.82797 26.168 8.89997 26.756 9.04397 27.164C9.21197 27.548 9.49997 27.812 9.90797 27.956C10.34 28.076 10.94 28.148 11.708 28.172V29H1.08797Z" fill="#312C2C"/>
<path d="M31.6452 29.54C30.0132 29.54 28.5252 29.192 27.1812 28.496C25.8612 27.8 24.8052 26.804 24.0132 25.508C23.2452 24.212 22.8612 22.676 22.8612 20.9C22.8612 18.98 23.2932 17.348 24.1572 16.004C25.0212 14.66 26.1612 13.64 27.5772 12.944C29.0172 12.248 30.5532 11.9 32.1852 11.9C34.3932 11.9 36.0612 12.5 37.1892 13.7C38.3412 14.876 38.9172 16.424 38.9172 18.344L28.2972 19.676C28.4412 21.716 29.0412 23.18 30.0972 24.068C31.1532 24.956 32.3772 25.4 33.7692 25.4C34.4652 25.4 35.2572 25.28 36.1452 25.04C37.0332 24.776 37.8372 24.308 38.5572 23.636L39.1332 24.212C38.4612 25.82 37.5372 27.116 36.3612 28.1C35.2092 29.06 33.6372 29.54 31.6452 29.54ZM31.1052 13.448C30.2892 13.448 29.6292 13.88 29.1252 14.744C28.6212 15.584 28.3332 16.748 28.2612 18.236L33.4812 17.588C33.4332 16.46 33.2292 15.488 32.8692 14.672C32.5332 13.856 31.9452 13.448 31.1052 13.448Z" fill="#312C2C"/>
<path d="M60.4418 25.436L60.8018 26.264L53.3498 29.756L53.1339 29.54C53.1819 29.324 53.2299 28.868 53.2779 28.172C53.3259 27.476 53.3498 26.768 53.3498 26.048H53.2779C52.8219 27.032 52.0898 27.86 51.0818 28.532C50.0978 29.204 48.9098 29.54 47.5178 29.54C46.3658 29.54 45.2979 29.216 44.3139 28.568C43.3299 27.896 42.5258 26.948 41.9018 25.724C41.3018 24.476 41.0019 23 41.0019 21.296C41.0019 19.568 41.3018 18.116 41.9018 16.94C42.5018 15.74 43.2818 14.768 44.2418 14.024C45.2258 13.28 46.2939 12.74 47.4459 12.404C48.5979 12.068 49.7258 11.9 50.8298 11.9C51.3098 11.9 51.7539 11.912 52.1618 11.936C52.5699 11.96 52.9298 11.996 53.2418 12.044V5.636C53.2418 5.276 53.1698 5.036 53.0258 4.916C52.9058 4.796 52.7138 4.736 52.4498 4.736C52.0418 4.736 51.5858 4.832 51.0818 5.024L50.7218 4.196L58.5698 0.559998L58.7859 0.775997C58.7618 1.136 58.7258 1.7 58.6778 2.468C58.6538 3.212 58.6418 4.16 58.6418 5.312V24.68C58.6418 25.04 58.7138 25.28 58.8578 25.4C59.0018 25.52 59.1938 25.58 59.4338 25.58C59.7218 25.58 60.0578 25.532 60.4418 25.436ZM50.5058 25.94C50.9618 25.94 51.4298 25.844 51.9098 25.652C52.4138 25.46 52.8578 25.172 53.2418 24.788V15.212C52.5698 14.156 51.6578 13.628 50.5058 13.628C49.4498 13.628 48.5618 14.192 47.8419 15.32C47.1219 16.424 46.7618 17.9 46.7618 19.748C46.7618 21.836 47.1219 23.396 47.8419 24.428C48.5859 25.436 49.4738 25.94 50.5058 25.94Z" fill="#312C2C"/>
<path d="M62.9813 29V28.172C63.3893 28.148 63.7133 28.064 63.9533 27.92C64.1933 27.776 64.3613 27.488 64.4573 27.056C64.5533 26.6 64.6013 25.928 64.6013 25.04V16.76C64.6013 16.4 64.5293 16.16 64.3853 16.04C64.2653 15.92 64.0733 15.86 63.8093 15.86C63.5213 15.86 63.1853 15.908 62.8013 16.004L62.4413 15.176L69.9293 11.684L70.1453 11.9C70.0973 12.116 70.0373 12.584 69.9653 13.304C69.9173 14.024 69.8933 14.84 69.8933 15.752H69.9653C70.8533 14.408 71.8493 13.436 72.9533 12.836C74.0813 12.236 75.2933 11.984 76.5893 12.08C76.7813 14.168 76.7813 16.268 76.5893 18.38H75.7613C75.5933 17.3 75.2693 16.616 74.7893 16.328C74.3093 16.04 73.8053 15.896 73.2773 15.896C72.6773 15.896 72.1133 15.98 71.5853 16.148C71.0573 16.292 70.5293 16.58 70.0013 17.012V25.04C70.0013 25.928 70.0613 26.6 70.1813 27.056C70.3013 27.488 70.5413 27.776 70.9013 27.92C71.2853 28.064 71.8253 28.148 72.5213 28.172V29H62.9813Z" fill="#312C2C"/>
<path d="M87.4182 11.9C89.1702 11.9 90.7062 12.26 92.0262 12.98C93.3702 13.676 94.4262 14.672 95.1942 15.968C95.9622 17.264 96.3462 18.776 96.3462 20.504C96.3462 22.4 95.9022 24.02 95.0142 25.364C94.1262 26.708 92.9622 27.74 91.5222 28.46C90.1062 29.18 88.5702 29.54 86.9142 29.54C85.1862 29.54 83.6502 29.18 82.3062 28.46C80.9622 27.74 79.9062 26.744 79.1382 25.472C78.3702 24.176 77.9862 22.664 77.9862 20.936C77.9862 19.04 78.4302 17.42 79.3182 16.076C80.2062 14.732 81.3582 13.7 82.7742 12.98C84.2142 12.26 85.7622 11.9 87.4182 11.9ZM87.5262 27.992C88.4142 27.992 89.1462 27.488 89.7222 26.48C90.2982 25.472 90.5862 23.912 90.5862 21.8C90.5862 20.264 90.4302 18.872 90.1182 17.624C89.8062 16.352 89.3622 15.344 88.7862 14.6C88.2342 13.832 87.5742 13.448 86.8062 13.448C85.9182 13.448 85.1862 13.952 84.6102 14.96C84.0342 15.968 83.7462 17.528 83.7462 19.64C83.7462 21.176 83.9022 22.58 84.2142 23.852C84.5262 25.1 84.9702 26.108 85.5462 26.876C86.1222 27.62 86.7822 27.992 87.5262 27.992Z" fill="#312C2C"/>
<path d="M127.661 25.436L128.021 26.264L120.569 29.756L120.353 29.54C120.401 29.324 120.449 28.868 120.497 28.172C120.545 27.476 120.569 26.768 120.569 26.048H120.497C120.041 27.032 119.309 27.86 118.301 28.532C117.317 29.204 116.129 29.54 114.737 29.54C113.585 29.54 112.517 29.216 111.533 28.568C110.549 27.896 109.745 26.948 109.121 25.724C108.521 24.476 108.221 23 108.221 21.296C108.221 19.568 108.521 18.116 109.121 16.94C109.721 15.74 110.501 14.768 111.461 14.024C112.445 13.28 113.513 12.74 114.665 12.404C115.817 12.068 116.945 11.9 118.049 11.9C118.529 11.9 118.973 11.912 119.381 11.936C119.789 11.96 120.149 11.996 120.461 12.044V5.636C120.461 5.276 120.389 5.036 120.245 4.916C120.125 4.796 119.933 4.736 119.669 4.736C119.261 4.736 118.805 4.832 118.301 5.024L117.941 4.196L125.789 0.559998L126.005 0.775997C125.981 1.136 125.945 1.7 125.897 2.468C125.873 3.212 125.861 4.16 125.861 5.312V24.68C125.861 25.04 125.933 25.28 126.077 25.4C126.221 25.52 126.413 25.58 126.653 25.58C126.941 25.58 127.277 25.532 127.661 25.436ZM117.725 25.94C118.181 25.94 118.649 25.844 119.129 25.652C119.633 25.46 120.077 25.172 120.461 24.788V15.212C119.789 14.156 118.877 13.628 117.725 13.628C116.669 13.628 115.781 14.192 115.061 15.32C114.341 16.424 113.981 17.9 113.981 19.748C113.981 21.836 114.341 23.396 115.061 24.428C115.805 25.436 116.693 25.94 117.725 25.94Z" fill="#312C2C"/>
<path d="M138.696 29.54C137.064 29.54 135.576 29.192 134.232 28.496C132.912 27.8 131.856 26.804 131.064 25.508C130.296 24.212 129.912 22.676 129.912 20.9C129.912 18.98 130.344 17.348 131.208 16.004C132.072 14.66 133.212 13.64 134.628 12.944C136.068 12.248 137.604 11.9 139.236 11.9C141.444 11.9 143.112 12.5 144.24 13.7C145.392 14.876 145.968 16.424 145.968 18.344L135.348 19.676C135.492 21.716 136.092 23.18 137.148 24.068C138.204 24.956 139.428 25.4 140.82 25.4C141.516 25.4 142.308 25.28 143.196 25.04C144.084 24.776 144.888 24.308 145.608 23.636L146.184 24.212C145.512 25.82 144.588 27.116 143.412 28.1C142.26 29.06 140.688 29.54 138.696 29.54ZM138.156 13.448C137.34 13.448 136.68 13.88 136.176 14.744C135.672 15.584 135.384 16.748 135.312 18.236L140.532 17.588C140.484 16.46 140.28 15.488 139.92 14.672C139.584 13.856 138.996 13.448 138.156 13.448Z" fill="#312C2C"/>
<path d="M165.856 29.54C164.296 29.54 162.904 29.192 161.68 28.496C160.456 27.8 159.496 26.816 158.8 25.544C158.104 24.272 157.756 22.76 157.756 21.008C157.756 19.448 158.044 18.104 158.62 16.976C159.22 15.824 159.988 14.876 160.924 14.132C161.884 13.388 162.928 12.836 164.056 12.476C165.208 12.092 166.336 11.9 167.44 11.9C168.28 11.9 169.192 11.996 170.176 12.188C171.16 12.356 171.94 12.644 172.516 13.052V18.56H171.688C171.376 16.736 170.788 15.428 169.924 14.636C169.084 13.844 168.196 13.448 167.26 13.448C166.18 13.448 165.28 13.988 164.56 15.068C163.864 16.124 163.516 17.576 163.516 19.424C163.516 20.864 163.732 22.028 164.164 22.916C164.596 23.78 165.16 24.416 165.856 24.824C166.576 25.208 167.356 25.4 168.196 25.4C168.748 25.4 169.432 25.28 170.248 25.04C171.064 24.776 171.832 24.308 172.552 23.636L173.128 24.212C172.504 25.724 171.628 26.996 170.5 28.028C169.372 29.036 167.824 29.54 165.856 29.54Z" fill="#312C2C"/>
<path d="M179.264 29.54C177.944 29.54 176.96 29.144 176.312 28.352C175.688 27.56 175.376 26.648 175.376 25.616C175.376 24.032 176.096 22.748 177.536 21.764C179 20.78 181.256 19.88 184.304 19.064V17.156C184.304 16.028 184.064 15.224 183.584 14.744C183.128 14.24 182.48 13.988 181.64 13.988C180.488 13.988 179.528 14.42 178.76 15.284C178.016 16.148 177.5 17.312 177.212 18.776H176.384V13.592C177.2 13.184 178.256 12.8 179.552 12.44C180.872 12.08 182.3 11.9 183.836 11.9C187.988 11.9 190.064 13.508 190.064 16.724V24.572C190.064 25.124 190.136 25.556 190.28 25.868C190.424 26.156 190.712 26.3 191.144 26.3C191.384 26.3 191.648 26.252 191.936 26.156C192.248 26.036 192.572 25.82 192.908 25.508L193.484 26.084C192.956 27.188 192.26 28.016 191.396 28.568C190.532 29.096 189.548 29.36 188.444 29.36C187.268 29.36 186.356 29.132 185.708 28.676C185.084 28.196 184.64 27.512 184.376 26.624H184.304C183.752 27.584 183.02 28.316 182.108 28.82C181.196 29.3 180.248 29.54 179.264 29.54ZM182.072 26.3C182.552 26.3 182.972 26.192 183.332 25.976C183.716 25.736 184.04 25.472 184.304 25.184V20.504C183.2 20.816 182.36 21.224 181.784 21.728C181.232 22.232 180.86 22.736 180.668 23.24C180.5 23.744 180.416 24.164 180.416 24.5C180.416 25.004 180.56 25.436 180.848 25.796C181.136 26.132 181.544 26.3 182.072 26.3Z" fill="#312C2C"/>
<path d="M194.606 29V28.172C195.014 28.148 195.338 28.064 195.578 27.92C195.818 27.776 195.986 27.488 196.082 27.056C196.178 26.6 196.226 25.928 196.226 25.04V16.76C196.226 16.4 196.154 16.16 196.01 16.04C195.89 15.92 195.698 15.86 195.434 15.86C195.146 15.86 194.81 15.908 194.426 16.004L194.066 15.176L201.554 11.684L201.77 11.9C201.722 12.116 201.662 12.584 201.59 13.304C201.542 14.024 201.518 14.84 201.518 15.752H201.59C202.478 14.408 203.474 13.436 204.578 12.836C205.706 12.236 206.918 11.984 208.214 12.08C208.406 14.168 208.406 16.268 208.214 18.38H207.386C207.218 17.3 206.894 16.616 206.414 16.328C205.934 16.04 205.43 15.896 204.902 15.896C204.302 15.896 203.738 15.98 203.21 16.148C202.682 16.292 202.154 16.58 201.626 17.012V25.04C201.626 25.928 201.686 26.6 201.806 27.056C201.926 27.488 202.166 27.776 202.526 27.92C202.91 28.064 203.45 28.148 204.146 28.172V29H194.606Z" fill="#312C2C"/>
<path d="M216.883 25.04C216.883 25.928 216.943 26.6 217.063 27.056C217.183 27.488 217.399 27.776 217.711 27.92C218.023 28.064 218.467 28.148 219.043 28.172V29H209.863V28.172C210.271 28.148 210.595 28.064 210.835 27.92C211.075 27.776 211.243 27.488 211.339 27.056C211.435 26.6 211.483 25.928 211.483 25.04V5.636C211.483 5.276 211.411 5.036 211.267 4.916C211.147 4.796 210.955 4.736 210.691 4.736C210.499 4.736 210.283 4.76 210.043 4.808C209.827 4.856 209.587 4.928 209.323 5.024L208.963 4.196L216.811 0.559998L217.027 0.775997C217.003 1.136 216.967 1.7 216.919 2.468C216.895 3.212 216.883 4.16 216.883 5.312V25.04Z" fill="#312C2C"/>
<path d="M228.275 25.04C228.275 25.928 228.335 26.6 228.455 27.056C228.575 27.488 228.791 27.776 229.103 27.92C229.415 28.064 229.859 28.148 230.435 28.172V29H221.255V28.172C221.663 28.148 221.987 28.064 222.227 27.92C222.467 27.776 222.635 27.488 222.731 27.056C222.827 26.6 222.875 25.928 222.875 25.04V16.76C222.875 16.4 222.803 16.16 222.659 16.04C222.539 15.92 222.347 15.86 222.083 15.86C221.891 15.86 221.675 15.884 221.435 15.932C221.219 15.98 220.979 16.052 220.715 16.148L220.355 15.32L228.203 11.684L228.419 11.9C228.395 12.26 228.359 12.824 228.311 13.592C228.287 14.336 228.275 15.284 228.275 16.436V25.04ZM225.755 9.92C224.867 9.92 224.123 9.62 223.523 9.02C222.923 8.396 222.623 7.664 222.623 6.824C222.623 5.984 222.923 5.252 223.523 4.628C224.123 4.004 224.867 3.692 225.755 3.692C226.619 3.692 227.351 4.004 227.951 4.628C228.551 5.252 228.851 5.984 228.851 6.824C228.851 7.664 228.551 8.396 227.951 9.02C227.351 9.62 226.619 9.92 225.755 9.92Z" fill="#312C2C"/>
</svg>
